<?xml version="1.0" standalone="no"?>
<!DOCTYPE svg PUBLIC "-//W3C//DTD SVG 20010904//EN"
 "http://www.w3.org/TR/2001/REC-SVG-20010904/DTD/svg10.dtd">
<svg version="1.0" xmlns="http://www.w3.org/2000/svg"
 width="1280.000000pt" height="1280.000000pt" viewBox="0 0 1280.000000 1280.000000"
 preserveAspectRatio="xMidYMid meet">
<metadata>
Created by potrace 1.11, written by Peter Selinger 2001-2013
</metadata>
<g transform="translate(0.000000,1280.000000) scale(0.100000,-0.100000)"
fill="#000000" stroke="none">
<path d="M7038 12794 c-2 -1 -57 -6 -123 -9 -66 -3 -140 -7 -165 -10 -25 -2
-94 -6 -155 -10 -60 -3 -123 -8 -140 -10 -16 -2 -75 -7 -130 -11 -55 -3 -116
-7 -135 -9 -174 -15 -743 -18 -3235 -17 -1579 0 -2879 -1 -2890 -3 -20 -4 -20
-12 -20 -2097 0 -1669 3 -2096 13 -2106 7 -8 10 -17 8 -21 -26 -41 -27 -803
-1 -884 2 -6 6 -41 10 -76 3 -36 8 -68 11 -73 3 -4 0 -8 -5 -8 -6 0 -11 8 -11
18 -1 9 -6 27 -13 40 -11 20 -13 13 -12 -50 2 -68 3 -73 23 -72 23 1 30 -12
37 -66 2 -17 6 -46 10 -63 4 -21 -7 -6 -29 41 -19 39 -37 72 -38 72 -2 0 -3
-1657 -3 -3682 l1 -3683 3954 -2 3955 -1 -105 28 c-108 28 -160 46 -160 54 0
3 10 3 23 0 12 -3 59 -6 104 -8 77 -3 146 12 238 50 16 6 17 5 7 -7 -33 -39
-82 -105 -82 -111 0 -5 1078 -8 2395 -8 l2395 0 0 6358 0 6359 -1618 0 -1618
0 2 -25 c1 -24 11 -29 162 -76 88 -28 164 -55 169 -60 5 -5 0 -6 -11 -2 -70
25 -338 79 -458 93 -87 9 -70 20 28 17 47 -1 84 0 82 2 -3 2 -57 14 -121 27
-118 24 -121 24 -118 -15 2 -13 -5 -15 -36 -12 -165 16 -394 20 -573 9 -169
-10 -158 -11 -220 3 -30 6 -66 14 -80 16 -14 2 -44 9 -67 14 -45 10 -53 8 -53
-19 0 -23 11 -26 124 -24 107 1 102 -9 -9 -19 -38 -4 -71 -9 -75 -11 -3 -2
-24 -6 -46 -9 -22 -4 -51 -9 -64 -11 -14 -3 -41 -8 -60 -11 -19 -3 -38 -8 -43
-11 -4 -2 -20 -6 -35 -9 -114 -19 -422 -122 -595 -200 -150 -67 -130 -39 32
45 200 103 464 195 623 216 23 3 52 8 63 10 11 2 34 4 50 4 108 4 -249 100
-430 116 -38 4 -81 9 -95 12 -27 6 -637 13 -642 7z m2292 -128 c0 -2 -7 -7
-16 -10 -8 -3 -12 -2 -9 4 6 10 25 14 25 6z m-2070 -366 c-8 -5 -19 -10 -25
-10 -5 0 -3 5 5 10 8 5 20 10 25 10 6 0 3 -5 -5 -10z m1637 -46 c-3 -3 -12 -4
-19 -1 -8 3 -5 6 6 6 11 1 17 -2 13 -5z m40 0 c-3 -3 -12 -4 -19 -1 -8 3 -5 6
6 6 11 1 17 -2 13 -5z m46 -1 c-7 -2 -19 -2 -25 0 -7 3 -2 5 12 5 14 0 19 -2
13 -5z m-338 -22 c-2 -2 -58 -11 -123 -21 -65 -10 -128 -20 -138 -23 -10 -4
-35 -9 -54 -12 -58 -10 -197 -44 -289 -71 -47 -14 -93 -27 -102 -29 -9 -2 -81
-29 -160 -60 -182 -71 -186 -72 -117 -36 156 80 425 177 573 207 195 40 257
49 329 49 46 0 83 -1 81 -4z m-4950 -626 c71 -8 136 -16 165 -21 112 -19 150
-27 147 -31 -3 -2 -31 0 -63 6 -84 14 -153 21 -344 36 -90 7 -142 14 -148 20
-5 5 174 -3 243 -10z m-528 -22 c-4 -3 -21 -7 -39 -9 -58 -6 -122 -15 -143
-19 -11 -3 -37 -7 -57 -10 -92 -12 -327 -71 -443 -110 -11 -3 -7 1 8 10 16 9
38 18 50 21 12 2 33 8 47 14 60 23 320 84 410 95 24 3 46 7 48 10 2 2 31 4 64
4 33 0 58 -3 55 -6z m40 1 c-3 -3 -12 -4 -19 -1 -8 3 -5 6 6 6 11 1 17 -2 13
-5z m856 -41 c-7 -2 -19 -2 -25 0 -7 3 -2 5 12 5 14 0 19 -2 13 -5z m-1633
-128 c-46 -18 -64 -17 -25 0 17 8 37 14 45 14 8 0 -1 -7 -20 -14z m-75 -25
c-3 -5 -12 -10 -18 -10 -7 0 -6 4 3 10 19 12 23 12 15 0z m8836 -155 c10 -11
41 -44 69 -73 28 -30 50 -55 48 -57 -2 -1 -145 -5 -318 -8 -173 -3 -326 -8
-340 -11 -14 -2 -52 -7 -85 -11 -33 -3 -69 -8 -80 -12 -13 -3 -17 -2 -10 5 9
9 117 31 230 47 22 3 54 8 70 10 17 3 43 7 59 10 50 8 218 19 294 19 67 1 72
2 70 21 -2 11 -5 22 -8 25 -3 3 -18 25 -34 50 -27 41 -27 43 -5 25 13 -11 31
-29 40 -40z m-7761 -29 c115 -9 329 -41 338 -51 2 -2 1 -8 -3 -14 -4 -7 -23
-9 -48 -5 -23 3 -64 7 -90 8 -26 2 -51 7 -55 11 -4 5 -1 5 7 0 10 -6 12 -4 7
4 -6 9 -11 9 -22 0 -9 -7 -14 -7 -14 -1 0 5 -15 10 -32 10 -18 0 -51 3 -73 6
-22 3 -76 8 -120 12 -44 3 -89 8 -100 9 -11 1 -36 3 -55 5 -29 2 -31 3 -12 8
27 8 154 7 272 -2z m-364 -17 c0 -8 2 -19 2 -25 1 -6 23 -9 52 -8 64 4 66 -11
3 -16 -78 -5 -115 -5 -172 4 -46 7 -53 6 -48 -7 7 -19 -11 -37 -38 -37 -12 0
-84 -18 -159 -40 -380 -111 -733 -293 -1020 -525 -140 -114 -151 -119 -65 -35
208 207 427 363 674 485 209 103 453 182 625 202 25 3 61 8 80 12 46 10 65 7
66 -10z m141 -35 c-3 -3 -12 -4 -19 -1 -8 3 -5 6 6 6 11 1 17 -2 13 -5z m653
-18 c80 -15 200 -50 200 -58 0 -5 -7 -5 -17 0 -10 5 -38 12 -63 16 -51 7 -180
45 -180 53 0 2 8 2 18 -1 9 -3 28 -7 42 -10z m235 -66 c3 -6 -1 -7 -9 -4 -18
7 -21 14 -7 14 6 0 13 -4 16 -10z m1785 -245 c0 -2 -9 -24 -19 -47 -11 -24
-26 -57 -33 -75 l-14 -32 -82 55 c-45 30 -82 55 -82 57 0 1 28 1 62 -1 51 -2
71 2 108 21 47 25 60 30 60 22z m3770 -138 c-85 -82 -169 -173 -260 -283 -41
-49 -77 -91 -80 -94 -3 -3 -27 -32 -55 -65 -87 -105 -117 -138 -220 -240 -151
-151 -236 -219 -130 -104 39 42 128 159 198 261 149 217 192 266 324 376 87
73 270 209 283 211 3 0 -24 -27 -60 -62z m-4340 -254 l25 -28 -30 25 c-16 14
-32 27 -35 30 -3 3 -31 25 -62 48 -31 24 -63 51 -70 60 -21 26 145 -104 172
-135z m6957 -245 c-3 -8 -6 -5 -6 6 -1 11 2 17 5 13 3 -3 4 -12 1 -19z m22
-68 c0 -9 -4 -8 -9 5 -5 11 -9 27 -9 35 0 9 4 8 9 -5 5 -11 9 -27 9 -35z m48
-292 c7 -55 8 -269 2 -328 -4 -37 -7 -6 -8 90 -1 80 -5 176 -7 215 -5 69 5 86
13 23z m-3527 -18 c-49 -38 -174 -93 -218 -95 -48 -3 -45 10 3 18 57 10 130
37 180 66 58 35 70 39 35 11z m-252 -115 c-5 -5 -172 -37 -208 -41 -19 -2 -57
-6 -85 -10 -52 -6 -66 -8 -235 -18 -100 -6 -153 -10 -284 -21 -32 -3 -77 0
-100 7 l-41 11 40 8 c125 24 213 33 410 44 66 4 136 8 155 10 19 2 94 7 165
10 72 4 131 8 133 10 4 3 54 -7 50 -10z m-3318 -109 c85 -7 98 -9 193 -32 65
-16 96 -31 40 -20 -16 3 -59 8 -98 11 -38 3 -108 10 -155 16 -86 10 -146 15
-210 19 -29 2 -31 3 -12 8 26 8 129 7 242 -2z m2346 1 c2 -2 -9 -4 -24 -5 -16
0 -55 -7 -86 -16 -65 -16 -66 -10 -3 16 37 14 101 17 113 5z m-2686 -29 c0
-26 -3 -28 -40 -28 -22 0 -41 0 -42 -1 -2 -1 -27 -5 -56 -10 -38 -6 -64 -4
-92 6 -38 13 -40 13 -40 -6 0 -20 -8 -25 -50 -33 -74 -12 -266 -69 -357 -105
-29 -11 -53 -19 -53 -16 0 8 109 60 209 100 136 54 295 96 421 110 30 3 55 7
57 8 1 2 11 3 23 3 15 0 20 -7 20 -28z m5792 -447 c32 -11 88 -34 124 -52 77
-36 256 -140 251 -145 -2 -2 -32 8 -68 22 -94 37 -150 56 -155 51 -2 -2 13
-23 33 -46 41 -49 42 -49 -72 20 -72 43 -187 97 -240 113 -90 28 -195 10 -260
-43 -19 -15 -19 -15 -5 2 21 28 90 73 140 91 57 21 172 15 252 -13z m-516
-266 c-1 -8 -5 -17 -8 -21 -5 -4 -4 16 1 34 3 9 9 -1 7 -13z m-27 -67 c-34
-110 -51 -173 -70 -258 -11 -52 -22 -102 -24 -110 -2 -8 -4 -19 -5 -25 -1 -5
-5 2 -10 17 -8 27 34 213 66 293 25 61 32 78 38 98 3 9 7 17 10 17 3 0 0 -15
-5 -32z m-9523 -25 c-3 -10 -7 -29 -10 -43 -2 -14 -7 -41 -11 -60 -12 -68 -13
-75 -15 -100 -1 -23 -2 -23 -11 -7 -8 14 -6 38 6 90 21 91 35 137 41 137 3 0
3 -8 0 -17z m11245 -87 c-17 -20 -70 -31 -84 -17 -8 8 -3 11 19 12 16 0 38 4
49 9 28 12 29 12 16 -4z m-11296 -207 c-20 -185 -29 -335 -29 -509 0 -140 10
-353 18 -395 2 -11 7 -51 11 -90 4 -38 8 -72 10 -75 2 -3 6 -29 9 -59 13 -120
98 -490 140 -612 8 -21 10 -36 6 -34 -5 3 -16 29 -26 58 -9 28 -52 146 -96
261 -43 115 -78 210 -78 212 0 2 9 4 20 4 25 0 25 0 -5 85 l-24 70 1 -53 c1
-28 -1 -54 -4 -57 -3 -3 -15 18 -27 47 l-21 53 3 -57 c2 -32 0 -58 -4 -58 -4
0 -7 8 -7 18 0 9 -3 62 -7 117 -11 138 -11 155 0 155 6 0 11 -30 12 -68 0 -37
2 -73 2 -79 1 -15 46 -11 46 3 -1 29 -40 212 -45 209 -3 -2 -5 8 -4 23 0 21 6
27 25 27 22 0 24 4 23 45 -1 25 -4 74 -7 110 -29 302 -28 471 3 490 6 4 8 14
5 23 -14 35 30 196 53 197 2 0 1 -28 -3 -61z m9456 -159 c6 0 8 -8 5 -17 -3
-10 -8 -50 -12 -90 -3 -39 -7 -80 -9 -90 -2 -10 -4 -31 -4 -47 -1 -37 -8 -31
-17 14 -9 42 -9 71 -1 130 13 103 22 144 25 123 2 -13 8 -23 13 -23z m-36
-328 c6 -4 11 -74 12 -166 1 -87 1 -157 -1 -155 -2 2 -7 36 -10 75 -4 39 -9
82 -11 94 -11 56 -16 160 -9 160 5 0 14 -4 19 -8z m-6661 -285 c-1 -10 -2 -21
-3 -26 0 -6 -11 -7 -23 -5 -13 3 -34 8 -48 11 -53 10 -54 16 -5 28 63 14 80
13 79 -8z m-50 -38 c3 -3 -7 -6 -22 -7 -35 -3 -126 -28 -177 -49 -75 -31 -168
-96 -235 -163 -120 -121 -210 -264 -280 -445 -31 -80 -48 -97 -19 -20 75 207
176 377 294 499 46 47 91 85 105 88 8 2 23 11 35 22 37 34 95 66 131 74 38 8
161 9 168 1z m6745 -139 c0 -10 -3 -8 -9 5 -12 27 -12 43 0 25 5 -8 9 -22 9
-30z m-9539 -280 c0 -5 -2 -10 -4 -10 -3 0 -8 5 -11 10 -3 6 -1 10 4 10 6 0
11 -4 11 -10z m2038 -361 c-6 -16 -12 -28 -14 -26 -5 5 13 57 20 57 3 0 0 -14
-6 -31z m-1638 -564 c0 -5 -5 -3 -10 5 -5 8 -10 20 -10 25 0 6 5 3 10 -5 5 -8
10 -19 10 -25z m40 -95 c18 -41 48 -106 66 -144 19 -38 32 -71 31 -73 -13 -12
-137 253 -137 292 0 14 6 2 40 -75z m9380 -1794 c0 -2 -9 -6 -20 -9 -11 -3
-18 -1 -14 4 5 9 34 13 34 5z m-80 -15 c0 -15 -121 -54 -133 -42 -7 7 -1 12
19 16 16 4 47 13 69 20 22 7 41 14 43 14 1 1 2 -3 2 -8z m-156 -50 c7 -10
-176 -63 -205 -59 -16 2 6 13 71 34 102 32 127 37 134 25z m-299 -99 c-18 -15
-67 -33 -60 -21 7 10 42 27 60 28 6 1 6 -2 0 -7z m-985 -349 c73 -9 298 -11
337 -3 67 16 17 -12 -54 -30 -67 -16 -143 -18 -233 -6 -43 6 -64 10 -195 41
l-60 14 80 -5 c44 -2 100 -7 125 -11z m-2750 -94 c-38 -32 -225 -141 -312
-182 -42 -20 -116 -50 -165 -67 -78 -28 -93 -30 -130 -21 -48 13 -59 14 -50 5
3 -4 2 -14 -3 -24 -10 -18 -103 -41 -250 -61 -148 -20 -442 -17 -580 5 -171
28 -176 29 -275 56 -44 12 -93 25 -110 30 -46 12 -96 32 -93 36 2 2 28 -3 58
-11 30 -8 69 -18 85 -21 17 -3 48 -9 70 -14 22 -5 58 -11 80 -14 23 -4 52 -8
65 -11 128 -25 587 -25 680 0 8 2 38 7 66 10 58 6 59 6 179 34 209 48 393 113
575 205 145 73 143 72 110 45z m-3505 -417 c-3 -3 -11 0 -18 7 -9 10 -8 11 6
5 10 -3 15 -9 12 -12z m175 -157 c88 -76 207 -180 230 -199 146 -124 228 -191
360 -295 85 -67 164 -130 175 -139 11 -9 72 -55 135 -102 63 -46 117 -87 120
-91 10 -11 266 -196 465 -336 278 -194 628 -427 921 -610 281 -177 454 -283
460 -283 2 0 34 -19 71 -43 38 -24 218 -130 401 -237 183 -106 330 -195 328
-197 -4 -4 -110 51 -391 202 -38 21 -112 62 -163 91 -52 30 -95 54 -98 54 -2
0 -33 18 -69 40 -36 22 -70 40 -75 40 -6 0 -10 5 -10 10 0 6 -4 10 -10 10 -8
0 -149 83 -466 275 -47 28 -184 115 -213 134 -13 9 -31 21 -39 26 -198 128
-567 378 -697 472 -233 170 -365 269 -575 431 -47 37 -424 344 -430 351 -3 4
-34 31 -70 61 -36 30 -85 73 -110 96 -25 22 -90 81 -145 130 -55 49 -109 98
-121 109 -11 11 -39 36 -61 56 -22 20 -44 43 -48 50 -5 8 14 -6 41 -31 28 -25
65 -59 84 -75z m7275 -244 c68 -23 116 -81 114 -138 l-1 -28 -9 30 c-19 67
-90 109 -178 107 -102 -3 -207 -71 -272 -175 -18 -29 -65 -90 -104 -137 -39
-47 -99 -123 -133 -168 -68 -89 -88 -107 -45 -39 162 250 362 479 464 529 82
40 94 42 164 19z m-3423 -1864 c35 -19 99 -53 143 -77 44 -23 175 -100 290
-169 116 -70 236 -140 267 -156 64 -32 72 -44 12 -19 -47 19 -274 132 -325
162 -71 40 -83 47 -93 55 -6 4 -48 30 -94 57 -46 28 -125 77 -175 110 -50 33
-94 60 -99 60 -4 0 -8 5 -8 10 0 6 -6 10 -14 10 -7 0 -20 7 -27 16 -10 12 -3
10 24 -5 20 -11 65 -36 99 -54z m-157 -437 c3 -5 1 -10 -4 -10 -6 0 -11 5 -11
10 0 6 2 10 4 10 3 0 8 -4 11 -10z m40 -28 c-3 -3 -11 0 -18 7 -9 10 -8 11 6
5 10 -3 15 -9 12 -12z"/>
</g>
</svg>
